<?xml version="1.0" standalone="no"?>
<!DOCTYPE svg PUBLIC "-//W3C//DTD SVG 20010904//EN"
 "http://www.w3.org/TR/2001/REC-SVG-20010904/DTD/svg10.dtd">
<svg version="1.0" xmlns="http://www.w3.org/2000/svg"
 width="88.000000pt" height="88.000000pt" viewBox="0 0 88.000000 88.000000"
 preserveAspectRatio="xMidYMid meet">
<metadata>
Created by potrace 1.14, written by Peter Selinger 2001-2017
</metadata>
<g transform="translate(0.000000,88.000000) scale(0.100000,-0.100000)"
fill="#000000" stroke="none">
<path d="M166 792 c-20 -38 -36 -133 -36 -209 0 -76 22 -135 61 -166 l30 -23
-22 -49 c-19 -42 -21 -61 -16 -129 3 -45 11 -105 17 -133 12 -53 12 -53 51
-53 21 0 39 4 39 8 0 4 -7 34 -15 67 -21 80 -14 90 16 22 13 -31 26 -57 29
-57 3 0 19 25 35 56 34 63 44 51 21 -27 -21 -70 -22 -69 22 -69 36 0 39 2 55
48 9 26 17 60 17 75 0 18 4 26 11 21 11 -7 8 -76 -7 -123 l-7 -23 99 4 c81 3
106 8 136 26 64 40 85 118 48 179 -24 39 -67 63 -115 63 -32 0 -36 -3 -33 -22
2 -18 12 -24 42 -29 113 -18 91 -150 -26 -165 l-48 -7 0 59 c0 58 -3 64 -51
135 -9 13 -19 36 -23 50 -5 23 -2 27 23 32 63 13 127 99 157 212 18 67 18 102
-2 109 -24 9 -64 7 -119 -7 -45 -12 -54 -12 -95 7 -64 28 -170 27 -227 -2
l-43 -22 0 32 c0 40 10 78 19 78 4 0 17 -9 29 -20 21 -20 72 -28 72 -11 0 14
-70 69 -102 80 -25 9 -30 7 -42 -17z m135 -169 c12 -15 12 -16 -4 -10 -10 4
-26 7 -35 7 -15 0 -15 2 -2 10 21 13 25 13 41 -7z m339 -10 c0 -10 -9 -36 -18
-58 l-18 -39 -26 47 c-24 43 -25 48 -10 57 29 16 72 12 72 -7z m-251 -12 c9
-6 10 -11 2 -15 -13 -8 -31 1 -31 15 0 11 11 11 29 0z m126 -42 c11 -17 2 -18
-25 -4 -24 14 -24 14 -3 15 12 0 25 -5 28 -11z m-128 -40 l22 -15 -25 -37
c-13 -20 -31 -37 -40 -37 -17 0 -34 39 -34 78 0 23 4 27 28 27 15 0 37 -7 49
-16z"/>
</g>
</svg>
